<svg width="24" height="24" viewBox="0 0 24 24" fill="none" xmlns="http://www.w3.org/2000/svg">
<g clip-path="url(#clip0_30_2376)">
<path d="M23.25 21H22.5V3H23.25C23.664 3 24 2.664 24 2.25C24 1.836 23.664 1.5 23.25 1.5H9V0.75C9 0.336 8.664 0 8.25 0H0.75C0.336 0 0 0.336 0 0.75V23.235C0 23.649 0.336 23.985 0.75 23.985H5.25C5.664 23.985 6 23.649 6 23.235V22.5H23.25C23.664 22.5 24 22.164 24 21.75C24 21.336 23.664 21 23.25 21ZM9 5.25V3H21V13.263C20.883 13.1775 20.7675 13.0725 20.634 12.948C20.2005 12.5475 19.6065 11.9985 18.501 11.9985C17.3955 11.9985 16.8015 12.5475 16.368 12.948C15.996 13.2915 15.771 13.4985 15.252 13.4985C14.733 13.4985 14.508 13.2915 14.136 12.948C13.7025 12.5475 13.1085 11.9985 12.003 11.9985C10.8975 11.9985 10.3035 12.5475 9.8685 12.948C9.4965 13.2915 9.2715 13.4985 8.7525 13.4985C8.2335 13.4985 8.0085 13.2915 7.6365 12.948C7.203 12.5475 6.609 11.9985 5.502 11.9985C5.496 11.9985 5.4915 11.9985 5.4855 11.9985C7.6095 10.5045 9.0015 8.037 9.0015 5.2485L9 5.25ZM1.5 1.5H7.5V5.25C7.5 8.718 4.8705 11.5845 1.5 11.958V1.5ZM4.5 22.485H1.5V13.575C3.21 13.923 4.5 15.438 4.5 17.25V22.485ZM5.055 14.25C4.941 14.088 4.8195 13.932 4.689 13.7835C4.917 13.6035 5.136 13.5 5.5005 13.5C6.0195 13.5 6.2445 13.707 6.6165 14.0505C6.6855 14.1135 6.759 14.181 6.837 14.25C7.2525 14.6115 7.8195 15 8.751 15C9.6825 15 10.2495 14.6115 10.665 14.25C10.743 14.1825 10.8165 14.115 10.8855 14.0505C11.2575 13.707 11.4825 13.5 12.0015 13.5C12.5205 13.5 12.7455 13.707 13.1175 14.0505C13.1865 14.1135 13.26 14.181 13.338 14.25C13.7535 14.6115 14.3205 15 15.252 15C16.1835 15 16.7505 14.6115 17.1645 14.25C17.2425 14.1825 17.316 14.115 17.385 14.0505C17.757 13.707 17.982 13.5 18.501 13.5C19.02 13.5 19.245 13.707 19.617 14.0505C19.686 14.1135 19.7595 14.181 19.8375 14.25C20.127 14.502 20.4915 14.7675 21.0015 14.904V17.763C20.8845 17.6775 20.769 17.5725 20.6355 17.448C20.202 17.0475 19.608 16.4985 18.5025 16.4985C17.397 16.4985 16.803 17.0475 16.3695 17.448C15.9975 17.7915 15.7725 17.9985 15.2535 17.9985C14.7345 17.9985 14.5095 17.7915 14.1375 17.448C13.704 17.0475 13.11 16.4985 12.0045 16.4985C10.899 16.4985 10.305 17.0475 9.87 17.448C9.498 17.7915 9.273 17.9985 8.754 17.9985C8.235 17.9985 8.01 17.7915 7.638 17.448C7.2675 17.106 6.7785 16.656 5.9535 16.533C5.838 15.693 5.523 14.9145 5.058 14.25H5.055ZM6 18.75V18.0915C6.2175 18.183 6.39 18.342 6.6165 18.5505C6.6855 18.6135 6.759 18.681 6.837 18.75C7.2525 19.1115 7.8195 19.5 8.751 19.5C9.6825 19.5 10.2495 19.1115 10.665 18.75C10.743 18.6825 10.8165 18.615 10.8855 18.5505C11.2575 18.207 11.4825 18 12.0015 18C12.5205 18 12.7455 18.207 13.1175 18.5505C13.1865 18.6135 13.26 18.681 13.338 18.75C13.7535 19.1115 14.3205 19.5 15.252 19.5C16.1835 19.5 16.7505 19.1115 17.1645 18.75C17.2425 18.6825 17.316 18.615 17.385 18.5505C17.757 18.207 17.982 18 18.501 18C19.02 18 19.245 18.207 19.617 18.5505C19.686 18.6135 19.7595 18.681 19.8375 18.75C20.127 19.002 20.4915 19.2675 21.0015 19.404V21H6V18.75ZM16.5 10.5C18.1545 10.5 19.5 9.1545 19.5 7.5C19.5 5.8455 18.1545 4.5 16.5 4.5C14.8455 4.5 13.5 5.8455 13.5 7.5C13.5 9.1545 14.8455 10.5 16.5 10.5ZM16.5 6C17.3265 6 18 6.6735 18 7.5C18 8.3265 17.3265 9 16.5 9C15.6735 9 15 8.3265 15 7.5C15 6.6735 15.6735 6 16.5 6Z" fill="white"/>
</g>
<defs>
<clipPath id="clip0_30_2376">
<rect width="24" height="24" fill="white"/>
</clipPath>
</defs>
</svg>
