<svg width="24" height="24" viewBox="0 0 24 24" fill="none" xmlns="http://www.w3.org/2000/svg">
<path d="M0.344579 10.4718L5.73754 9.17742L7.55247 17.4731H4.53002C4.49789 17.3964 4.46942 17.3191 4.43219 17.2453L3.00711 14.3952L1.70103 15.0486L3.12611 17.8987C3.28234 18.2119 3.36484 18.5616 3.36484 18.9106V21.422H0.729321V22.8821H24V21.422H15.1487V19.6618C15.1487 18.455 14.1661 17.4724 12.9593 17.4724H9.04617L7.15677 8.83576L12.5775 7.53406L12.4074 6.82444C12.0153 5.19056 11.01 3.80783 9.57765 2.92957C8.14527 2.0513 6.45665 1.7841 4.82204 2.17614C1.45062 2.98651 -0.635162 6.38932 0.174475 9.7622L0.344579 10.4718ZM13.6886 19.6618V21.4205H4.82569V18.9325H12.96C13.3616 18.9332 13.6886 19.2596 13.6886 19.6618ZM5.16371 3.59684C5.54115 3.50631 5.92224 3.46178 6.30041 3.46178C7.18086 3.46178 8.04672 3.70416 8.81547 4.17578C9.70541 4.72113 10.38 5.51982 10.7647 6.46963L1.47763 8.6985C1.27906 6.36158 2.8151 4.16045 5.16371 3.59684Z" fill="white"/>
</svg>
