<svg width="24" height="24" viewBox="0 0 24 24" fill="none" xmlns="http://www.w3.org/2000/svg">
<path d="M21.3333 3.33331H16.2222C15.9767 3.33331 15.7777 3.53234 15.7777 3.77776C15.7777 4.02318 15.9767 4.2222 16.2222 4.2222H20.8888V22.4444H7.5703C8.25275 21.7618 6.40626 23.5949 10.2296 19.7611C10.748 19.2421 10.7689 18.4223 10.2773 17.8948C10.1593 17.7682 10.0228 17.6701 9.87639 17.6L13.3871 14.0894C13.9069 13.5695 13.9069 12.7236 13.3871 12.2038C12.8658 11.6824 12.0226 11.6826 11.5014 12.2037L9.24781 14.4573C8.91181 13.7549 8.05132 13.491 7.38239 13.8746C7.06643 13.1411 6.18003 12.8553 5.49692 13.2449C5.4383 13.1089 5.35568 12.9805 5.24888 12.8659C4.73243 12.313 3.86492 12.2978 3.33026 12.8323L2.38715 13.7754C2.28661 13.857 2.22217 13.9813 2.22217 14.1209V22.8573C2.22217 23.1243 2.46879 23.3333 2.7019 23.3333C4.82537 23.333 19.2118 23.3333 21.3333 23.3333C21.5787 23.3333 21.7777 23.1343 21.7777 22.8889V3.77776C21.7777 3.53234 21.5787 3.33331 21.3333 3.33331ZM5.75977 22.4444C4.38221 22.4314 3.58275 22.4236 3.11106 22.427V14.3087L3.95883 13.4609C4.13279 13.2868 4.42275 13.2836 4.59897 13.4723C4.76003 13.6452 4.74817 13.9287 4.57248 14.1044C4.56417 14.1127 4.52692 14.153 4.1231 14.5857C3.93137 14.791 3.97803 15.1213 4.21497 15.2673C4.38639 15.3738 4.61883 15.3508 4.76666 15.1987L5.84648 14.0874C6.01995 13.916 6.30052 13.9166 6.47315 14.0894C6.64692 14.263 6.64697 14.5438 6.47341 14.7176C5.15181 16.0437 5.20555 15.9743 5.1591 16.0447C5.04546 16.2168 5.06386 16.4513 5.21603 16.6035C5.38981 16.7772 5.67119 16.7769 5.84461 16.6035C7.33759 15.1106 6.76661 15.6815 7.73021 14.7179C7.90399 14.544 8.18497 14.5441 8.35875 14.7179C8.53261 14.8917 8.53257 15.1726 8.35875 15.3464L6.47315 17.2321C6.29959 17.4056 6.29959 17.687 6.47315 17.8606C6.64675 18.0342 6.92803 18.0342 7.10168 17.8606L12.13 12.8323C12.3039 12.6585 12.5847 12.6585 12.7585 12.8323C12.9318 13.0056 12.9318 13.2876 12.7585 13.4609C12.7022 13.5172 6.6407 19.5785 6.47292 19.7462C6.29937 19.9198 6.29937 20.2012 6.47292 20.3748C6.64612 20.548 6.92763 20.5488 7.10168 20.3748L8.99026 18.4862C9.17079 18.309 9.45715 18.3186 9.62697 18.5009C9.78808 18.6738 9.77626 18.9574 9.60097 19.1329L7.5703 21.1632C6.88208 21.8512 6.55928 22.3763 5.75977 22.4444Z" fill="white"/>
<path d="M6.22228 13.9613C5.97681 13.9613 5.77783 13.7623 5.77783 13.5169V3.77776C5.77783 3.53234 5.97681 3.33331 6.22228 3.33331H10.8889C11.1344 3.33331 11.3334 3.53234 11.3334 3.77776C11.3334 4.02318 11.1344 4.2222 10.8889 4.2222H6.66672V13.5169C6.66672 13.7623 6.46774 13.9613 6.22228 13.9613Z" fill="white"/>
<path d="M13.5555 5.11109C12.8203 5.11109 12.2222 4.51296 12.2222 3.77776C12.2222 3.04256 12.8203 2.44443 13.5555 2.44443C14.2907 2.44443 14.8888 3.04256 14.8888 3.77776C14.8888 4.51296 14.2907 5.11109 13.5555 5.11109ZM13.5555 3.33332C13.3104 3.33332 13.1111 3.53269 13.1111 3.77776C13.1111 4.02283 13.3104 4.22221 13.5555 4.22221C13.8006 4.22221 13.9999 4.02283 13.9999 3.77776C13.9999 3.53269 13.8006 3.33332 13.5555 3.33332Z" fill="white"/>
<path d="M13.2497 8.10034C12.9626 7.82826 10.4443 5.39497 10.4443 3.77777C10.4443 2.0623 11.84 0.666656 13.5554 0.666656C15.2709 0.666656 16.6666 2.0623 16.6666 3.77777C16.6666 5.39497 14.1483 7.82826 13.8612 8.10034C13.6898 8.26283 13.4212 8.26283 13.2497 8.10034ZM13.5554 1.55555C12.3301 1.55555 11.3332 2.55243 11.3332 3.77777C11.3332 4.61746 12.5914 6.17603 13.5554 7.15466C14.5194 6.17608 15.7777 4.61746 15.7777 3.77777C15.7777 2.55243 14.7808 1.55555 13.5554 1.55555Z" fill="white"/>
<path d="M17.3332 13.5556H13.3323C13.0869 13.5556 12.8879 13.3565 12.8879 13.1111C12.8879 12.8657 13.0869 12.6667 13.3323 12.6667H17.3332C17.8234 12.6667 18.2221 12.2679 18.2221 11.7778C18.2221 11.2868 17.8242 10.8889 17.3332 10.8889H10.2221C9.73198 10.8889 9.33322 11.2876 9.33322 11.7778C9.33322 12.2687 9.73118 12.6667 10.2221 12.6667H11.2226C11.468 12.6667 11.667 12.8657 11.667 13.1111C11.667 13.3565 11.468 13.5556 11.2226 13.5556H10.2221C9.23998 13.5556 8.44434 12.7601 8.44434 11.7778C8.44434 10.7975 9.24185 10 10.2221 10H17.3332C18.3154 10 19.111 10.7955 19.111 11.7778C19.111 12.758 18.3135 13.5556 17.3332 13.5556Z" fill="white"/>
<path d="M17.7778 16.2222H14.2223C13.9769 16.2222 13.7778 16.0232 13.7778 15.7778C13.7778 15.5323 13.9769 15.3333 14.2223 15.3333H17.7778C18.0233 15.3333 18.2223 15.5323 18.2223 15.7778C18.2223 16.0232 18.0233 16.2222 17.7778 16.2222Z" fill="white"/>
<path d="M17.7778 18.4444H14.2223C13.9769 18.4444 13.7778 18.2454 13.7778 18C13.7778 17.7546 13.9769 17.5555 14.2223 17.5555H17.7778C18.0233 17.5555 18.2223 17.7546 18.2223 18C18.2223 18.2454 18.0233 18.4444 17.7778 18.4444Z" fill="white"/>
<path d="M17.7778 20.6667H14.2223C13.9769 20.6667 13.7778 20.4676 13.7778 20.2222C13.7778 19.9768 13.9769 19.7778 14.2223 19.7778H17.7778C18.0233 19.7778 18.2223 19.9768 18.2223 20.2222C18.2223 20.4676 18.0233 20.6667 17.7778 20.6667Z" fill="white"/>
</svg>
