<svg width="24" height="24" viewBox="0 0 24 24" fill="none" xmlns="http://www.w3.org/2000/svg">
<path d="M23.25 15C22.836 15 22.5 15.336 22.5 15.75V16.5H21V3.75C21 1.6815 19.3185 0 17.25 0H3.75C1.6815 0 0 1.6815 0 3.75V17.25C0 17.664 0.336 18 0.75 18H3.099C3.4335 19.2915 4.605 20.25 6 20.25C7.395 20.25 8.5665 19.2915 8.901 18H23.25C23.664 18 24 17.664 24 17.25V15.75C24 15.336 23.664 15 23.25 15ZM6 18.75C5.1735 18.75 4.5 18.0765 4.5 17.25C4.5 16.4235 5.1735 15.75 6 15.75C6.8265 15.75 7.5 16.4235 7.5 17.25C7.5 18.0765 6.8265 18.75 6 18.75ZM12 16.5V6H16.5V16.5H12ZM16.5 4.5H12C11.1735 4.5 10.5 5.1735 10.5 6V16.5H8.901C8.5665 15.2085 7.395 14.25 6 14.25C4.605 14.25 3.4335 15.2085 3.099 16.5H1.5V3.75C1.5 2.5095 2.5095 1.5 3.75 1.5H17.25C18.4905 1.5 19.5 2.5095 19.5 3.75V16.5H18V6C18 5.1735 17.3265 4.5 16.5 4.5ZM7.5 4.5H4.5C3.6735 4.5 3 5.1735 3 6V9C3 9.8265 3.6735 10.5 4.5 10.5H7.5C8.3265 10.5 9 9.8265 9 9V6C9 5.1735 8.3265 4.5 7.5 4.5ZM7.5 9H4.5V6H7.5V9Z" fill="white"/>
</svg>
