<svg width="24" height="24" viewBox="0 0 24 24" fill="none" xmlns="http://www.w3.org/2000/svg">
<path d="M21.0929 15.9645C20.9166 15.7102 20.5671 15.6465 20.3099 15.8235L19.4714 16.4062H19.1429C17.8379 15.5243 16.9836 14.1322 16.7886 12.489C16.7549 12.2063 16.5149 11.9925 16.2299 11.9925H16.0611V11.0512H17.7006C17.8154 11.0512 17.9271 11.016 18.0216 10.9508L18.7559 10.4415C19.0109 10.2645 19.0746 9.9135 18.8969 9.6585C18.7206 9.4035 18.3711 9.3405 18.1139 9.5175L17.5251 9.92625H17.3721C16.4534 9.29025 15.8504 8.301 15.7124 7.13175C15.6786 6.849 15.4386 6.636 15.1536 6.636H15.0434V5.69475H15.9254C16.0401 5.69475 16.1519 5.6595 16.2464 5.59425L16.7519 5.24325C17.0069 5.06625 17.0706 4.71525 16.8929 4.46025C16.7166 4.206 16.3664 4.14225 16.1099 4.31925L15.7499 4.56975H15.6726C14.2521 4.11825 13.1174 3.0165 12.6314 1.605L12.5324 1.317C12.4536 1.0905 12.2399 0.9375 11.9999 0.9375C11.7599 0.9375 11.5461 1.0905 11.4681 1.317L11.3691 1.605C10.8831 3.01725 9.74764 4.119 8.32714 4.56975H8.25064L7.89064 4.31925C7.63414 4.14225 7.28464 4.20525 7.10764 4.46025C6.93064 4.71525 6.99364 5.06625 7.24864 5.24325L7.75414 5.59425C7.84864 5.6595 7.95964 5.69475 8.07514 5.69475H8.95714V6.636H8.84689C8.56189 6.636 8.31514 6.9045 8.28139 7.18725C8.14939 8.30325 7.54714 9.29025 6.62839 9.92625H6.47464L5.88589 9.5175C5.62939 9.34125 5.27989 9.40425 5.10289 9.6585C4.92589 9.9135 4.98964 10.2645 5.24389 10.4415L5.97814 10.9508C6.07264 11.016 6.18364 11.0512 6.29914 11.0512H7.93864V11.9925H7.76989C7.48489 11.9925 7.23589 12.2797 7.20214 12.5625C7.01614 14.1337 6.16189 15.5235 4.85689 16.4055H4.52839L3.68989 15.8228C3.43339 15.6458 3.08389 15.7087 2.90689 15.9637C2.72989 16.2188 2.79364 16.5698 3.04789 16.7467L4.03189 17.43C4.12639 17.4953 4.23739 17.5305 4.35289 17.5305H5.33989V22.5C5.33989 22.8105 5.59189 23.0625 5.90239 23.0625H10.6679H13.3311H18.0966C18.4071 23.0625 18.6591 22.8105 18.6591 22.5V17.5305H19.6461C19.7609 17.5305 19.8726 17.4953 19.9671 17.43L20.9511 16.7467C21.2061 16.5698 21.2699 16.2195 21.0929 15.9645ZM11.9999 2.93475C12.3531 3.56175 12.8204 4.11375 13.3701 4.56975H10.6311C11.1809 4.11375 11.6466 3.561 11.9999 2.93475ZM10.0814 5.69475H13.9176V6.636H10.0814V5.69475ZM9.32239 7.761H14.6744C14.8424 8.565 15.2031 9.3045 15.7184 9.92625H8.27989C8.78839 9.30975 9.14839 8.574 9.32239 7.761ZM9.06289 11.0512H14.9369V11.9925H9.06289V11.0512ZM8.25139 13.1175H15.7439C15.9741 14.3655 16.5614 15.498 17.4179 16.4055H6.57964C7.42489 15.5078 8.00914 14.3835 8.25139 13.1175ZM11.2311 21.9375V20.4105C11.2311 19.9867 11.5761 19.6418 11.9999 19.6418C12.4236 19.6418 12.7686 19.9867 12.7686 20.4105V21.9375H11.2311ZM17.5349 21.9375H13.8944V20.4105C13.8944 19.3658 13.0446 18.5168 12.0006 18.5168C10.9566 18.5168 10.1069 19.3665 10.1069 20.4105V21.9375H6.46489V17.5305H17.5349V21.9375Z" fill="white"/>
</svg>
