<svg width="24" height="24" viewBox="0 0 24 24" fill="none" xmlns="http://www.w3.org/2000/svg">
<g clip-path="url(#clip0_30_2404)">
<path d="M23.91 14.3071L18.6598 3.32507C18.5788 3.15611 18.4498 3.02433 18.2938 2.9483L12.2935 0.0676266C11.938 -0.103017 11.524 0.0591787 11.3395 0.442705L8.47289 6.42369L2.73516 8.84649C2.48916 8.94955 2.30915 9.19116 2.26115 9.48176L0.0125581 22.9998C-0.0279435 23.2465 0.0305588 23.5016 0.173064 23.6942C0.31557 23.8868 0.527078 24 0.750587 24H23.25C23.664 24 24 23.6215 24 23.1552V14.7075C24 14.5673 23.9685 14.4304 23.91 14.3071ZM14.9996 22.3105H8.99941V20.6209C8.99941 18.7573 10.345 17.2418 11.9995 17.2418C13.6541 17.2418 14.9996 18.7573 14.9996 20.6209V22.3105ZM22.4999 22.3105H16.4997V20.6209C16.4997 17.8264 14.4806 15.5523 11.9995 15.5523C9.51843 15.5523 7.49935 17.8264 7.49935 20.6209V22.3105H1.65212L2.77717 15.5523H5.24926C5.66328 15.5523 5.99929 15.1738 5.99929 14.7075C5.99929 14.2412 5.66328 13.8627 5.24926 13.8627H3.05918L3.6592 10.2623L9.26342 7.89528C9.43293 7.82432 9.57393 7.68578 9.65944 7.50499L12.334 1.92274L17.4627 4.3861L19.1653 7.94934H14.9981C14.5841 7.94934 14.2481 8.3278 14.2481 8.79412C14.2481 9.26043 14.5841 9.63889 14.9981 9.63889H19.9738L21.1859 12.1732H18.7498C18.3358 12.1732 17.9998 12.5517 17.9998 13.018C17.9998 13.4843 18.3358 13.8627 18.7498 13.8627H21.9944L22.4999 14.9204V22.3105Z" fill="#25F299"/>
</g>
<defs>
<clipPath id="clip0_30_2404">
<rect width="24" height="24" fill="#25F299"/>
</clipPath>
</defs>
</svg>
