<svg width="24" height="24" viewBox="0 0 24 24" fill="none" xmlns="http://www.w3.org/2000/svg">
<g clip-path="url(#clip0_80_1221)">
<path d="M23.9655 18.5355C23.769 16.0245 22.674 13.7625 21 12.072V8.982C22.6935 8.802 24.0165 7.3665 24.0165 5.6265C24.0165 5.487 24.006 5.3445 23.9835 5.178L23.9085 4.6095L23.34 4.5345C23.1735 4.512 23.031 4.5015 22.8915 4.5015C21.8325 4.5015 20.886 4.992 20.2665 5.7585C19.647 4.992 18.7005 4.5015 17.6415 4.5015C17.502 4.5015 17.3595 4.512 17.193 4.5345L16.6245 4.6095L16.5495 5.178C16.527 5.3445 16.5165 5.4855 16.5165 5.6265C16.5165 7.3545 17.823 8.7825 19.5 8.9775V10.8195C17.835 9.6735 15.819 9.0015 13.65 9.0015H10.35C9.8505 9.0015 9.36 9.039 8.8785 9.108L8.4 9.045C8.778 8.5005 9 7.839 9 7.128C9 6.987 8.9895 6.8445 8.967 6.6795L8.8905 6.111L8.322 6.036C8.1555 6.0135 8.013 6.003 7.8735 6.003C6.8145 6.003 5.868 6.4935 5.2485 7.26C4.629 6.4935 3.6825 6.003 2.6235 6.003C2.484 6.003 2.3415 6.0135 2.175 6.036L1.6065 6.111L1.53 6.6795C1.5075 6.8445 1.497 6.9885 1.497 7.128C1.497 7.8405 1.719 8.5005 2.097 9.045L1.6065 9.111L1.53 9.6795C1.5075 9.8445 1.497 9.9885 1.497 10.128C1.497 11.0865 1.899 11.952 2.5425 12.567C1.1295 14.19 0.213 16.26 0.0345 18.5355C0.0135 18.6045 0 18.675 0 18.75C0 18.792 0.006 18.831 0.012 18.87C0.0045 19.029 0 19.188 0 19.35V24H24V19.35C24 19.1895 23.9955 19.029 23.988 18.87C23.994 18.831 24 18.7905 24 18.75C24 18.675 23.985 18.603 23.9655 18.5355ZM18.066 6.048C18.7605 6.2085 19.3095 6.7575 19.47 7.452C18.7755 7.2915 18.2265 6.7425 18.066 6.048ZM22.47 6.048C22.3095 6.7425 21.7605 7.2915 21.066 7.452C21.2265 6.7575 21.7755 6.2085 22.47 6.048ZM7.4535 10.548C7.293 11.2425 6.744 11.7915 6.0495 11.952C6.21 11.2575 6.759 10.7085 7.4535 10.548ZM4.4535 11.952C3.759 11.7915 3.21 11.2425 3.0495 10.548C3.744 10.7085 4.293 11.2575 4.4535 11.952ZM7.4535 7.548C7.293 8.2425 6.744 8.7915 6.0495 8.952C6.21 8.2575 6.759 7.7085 7.4535 7.548ZM4.4535 8.952C3.759 8.7915 3.21 8.2425 3.0495 7.548C3.744 7.7085 4.293 8.2575 4.4535 8.952ZM8.2515 22.5H1.5V19.6425C1.7295 19.746 1.9215 19.899 2.157 20.0865C2.6655 20.4945 3.3 21.0015 4.5 21.0015C5.7 21.0015 6.3345 20.4945 6.843 20.0865C7.284 19.734 7.575 19.5015 8.25 19.5015V22.5015L8.2515 22.5ZM14.2515 22.5H9.7515V16.5C9.7515 15.2595 10.761 14.25 12.0015 14.25C13.242 14.25 14.2515 15.2595 14.2515 16.5V22.5ZM12.0015 12.75C9.933 12.75 8.2515 14.4315 8.2515 16.5V18C7.209 18 6.594 18.3825 6.117 18.75C6.045 18.8055 5.976 18.861 5.9085 18.915C5.4675 19.2675 5.1765 19.5 4.5015 19.5C3.8265 19.5 3.5355 19.2675 3.0945 18.915C3.027 18.861 2.958 18.8055 2.886 18.75C2.5545 18.495 2.154 18.2325 1.5915 18.096C1.851 16.275 2.6655 14.6325 3.8595 13.344C4.065 13.4085 4.2795 13.455 4.5015 13.479V15C4.5015 15.414 4.8375 15.75 5.2515 15.75C5.6655 15.75 6.0015 15.414 6.0015 15V13.479C7.527 13.3095 8.748 12.12 8.967 10.6095C9.4185 10.5375 9.8805 10.5 10.3515 10.5H13.6515C18.105 10.5 21.7995 13.8075 22.4115 18.096C21.849 18.2325 21.4485 18.495 21.117 18.75C21.045 18.8055 20.976 18.861 20.9085 18.915C20.4675 19.2675 20.1765 19.5 19.5015 19.5C18.8265 19.5 18.5355 19.2675 18.0945 18.915C18.027 18.861 17.958 18.8055 17.886 18.75C17.409 18.3825 16.794 18 15.7515 18V16.5C15.7515 14.4315 14.07 12.75 12.0015 12.75ZM22.5015 22.5H15.7515V19.5C16.425 19.5 16.716 19.7325 17.157 20.085C17.6655 20.493 18.3 21 19.5 21C20.7 21 21.3345 20.493 21.843 20.085C22.077 19.8975 22.2705 19.7445 22.5 19.641V22.4985L22.5015 22.5ZM12.7515 16.5C12.7515 16.914 12.4155 17.25 12.0015 17.25C11.5875 17.25 11.2515 16.914 11.2515 16.5C11.2515 16.086 11.5875 15.75 12.0015 15.75C12.4155 15.75 12.7515 16.086 12.7515 16.5ZM20.25 4.5C21.4905 4.5 22.5 3.4905 22.5 2.25C22.5 1.0095 21.4905 0 20.25 0C19.0095 0 18 1.0095 18 2.25C18 3.4905 19.0095 4.5 20.25 4.5ZM20.25 1.5C20.664 1.5 21 1.836 21 2.25C21 2.664 20.664 3 20.25 3C19.836 3 19.5 2.664 19.5 2.25C19.5 1.836 19.836 1.5 20.25 1.5Z" fill="white"/>
</g>
<defs>
<clipPath id="clip0_80_1221">
<rect width="24" height="24" fill="white"/>
</clipPath>
</defs>
</svg>
