<svg width="24" height="24" viewBox="0 0 24 24" fill="none" xmlns="http://www.w3.org/2000/svg">
<path d="M19.4276 4.59545C21.3019 6.08746 22.2395 8.89215 20.7969 11.7125C19.9369 13.3775 18.3852 14.7114 16.6334 16.1031C16.4447 16.2531 16.2536 16.4037 16.0611 16.5554C14.6592 17.6606 13.1845 18.823 12 20.2084C10.8155 18.823 9.34085 17.6606 7.93886 16.5554C7.74642 16.4037 7.55534 16.2531 7.36657 16.1031C5.61482 14.7114 4.06317 13.3775 3.20311 11.7125C1.7605 8.8922 2.69804 6.08747 4.57237 4.59545C5.50988 3.84916 6.6754 3.43666 7.89507 3.50795C9.10989 3.57896 10.4185 4.13241 11.6417 5.38894L12 5.75697L12.3583 5.38894C13.5815 4.13241 14.8901 3.57896 16.1049 3.50795C17.3246 3.43666 18.4901 3.84916 19.4276 4.59545Z" stroke="#25F299"/>
</svg>
