<svg width="24" height="24" viewBox="0 0 24 24" fill="none" xmlns="http://www.w3.org/2000/svg">
<path d="M21.384 12.384H20.112C19.896 12.384 19.728 12.216 19.728 12C19.728 11.784 19.896 11.616 20.112 11.616H21.384C21.6 11.616 21.768 11.784 21.768 12C21.768 12.192 21.6 12.384 21.384 12.384Z" fill="white" stroke="white" stroke-width="0.1"/>
<path d="M14.1362 12.384H2.54416C2.32816 12.384 2.16016 12.216 2.16016 12C2.16016 11.784 2.32816 11.616 2.54416 11.616H14.1602C14.3762 11.616 14.5442 11.784 14.5442 12C14.5202 12.192 14.3522 12.384 14.1362 12.384Z" fill="white" stroke="white" stroke-width="0.1"/>
<path d="M17.1124 14.232C15.8644 14.232 14.8804 13.224 14.8804 12C14.8804 10.752 15.8884 9.76801 17.1124 9.76801C18.3604 9.76801 19.3444 10.776 19.3444 12C19.3444 13.224 18.3364 14.232 17.1124 14.232ZM17.1124 10.512C16.2964 10.512 15.6484 11.184 15.6484 11.976C15.6484 12.792 16.3204 13.44 17.1124 13.44C17.9284 13.44 18.5764 12.768 18.5764 11.976C18.5764 11.184 17.9284 10.512 17.1124 10.512Z" fill="white" stroke="white" stroke-width="0.1"/>
<path d="M2.83224 17.808H4.10424C4.32024 17.808 4.48824 17.64 4.48824 17.424C4.48824 17.208 4.32024 17.04 4.10424 17.04H2.83224C2.61624 17.04 2.44824 17.208 2.44824 17.424C2.44824 17.64 2.61624 17.808 2.83224 17.808Z" fill="white" stroke="white" stroke-width="0.1"/>
<path d="M10.0564 17.808H21.6724C21.8884 17.808 22.0564 17.64 22.0564 17.424C22.0564 17.208 21.8884 17.04 21.6724 17.04H10.0564C9.84036 17.04 9.67236 17.208 9.67236 17.424C9.67236 17.64 9.84036 17.808 10.0564 17.808Z" fill="white" stroke="white" stroke-width="0.1"/>
<path d="M4.84814 17.424C4.84814 16.176 5.85614 15.192 7.08014 15.192C8.32814 15.192 9.31214 16.2 9.31214 17.424C9.31214 18.672 8.30414 19.656 7.08014 19.656C5.85614 19.656 4.84814 18.648 4.84814 17.424ZM5.61614 17.424C5.61614 18.24 6.28814 18.888 7.08014 18.888C7.89614 18.888 8.54414 18.216 8.54414 17.424C8.54414 16.608 7.87214 15.96 7.08014 15.96C6.28814 15.96 5.61614 16.608 5.61614 17.424Z" fill="white" stroke="white" stroke-width="0.1"/>
<path d="M2.54416 6.93603H3.81616C4.03216 6.93603 4.20016 6.76803 4.20016 6.55203C4.20016 6.33603 4.03216 6.16803 3.81616 6.16803H2.54416C2.32816 6.16803 2.16016 6.33603 2.16016 6.55203C2.16016 6.76803 2.32816 6.93603 2.54416 6.93603Z" fill="white" stroke="white" stroke-width="0.1"/>
<path d="M9.76828 6.93603H21.3843C21.6003 6.93603 21.7683 6.76803 21.7683 6.55203C21.7683 6.33603 21.6003 6.16803 21.3843 6.16803H9.76828C9.55228 6.16803 9.38428 6.33603 9.38428 6.55203C9.38428 6.76803 9.55228 6.93603 9.76828 6.93603Z" fill="white" stroke="white" stroke-width="0.1"/>
<path d="M4.56006 6.55201C4.56006 5.30401 5.56806 4.32001 6.79206 4.32001C8.04006 4.32001 9.02406 5.32801 9.02406 6.55201C9.02406 7.80001 8.01606 8.78401 6.79206 8.78401C5.56806 8.80801 4.56006 7.80001 4.56006 6.55201ZM5.32806 6.55201C5.32806 7.36801 6.00006 8.01601 6.79206 8.01601C7.60806 8.01601 8.25606 7.34401 8.25606 6.55201C8.25606 5.73601 7.58406 5.08801 6.79206 5.08801C6.00006 5.08801 5.32806 5.73601 5.32806 6.55201Z" fill="white" stroke="white" stroke-width="0.1"/>
</svg>
