<svg width="24" height="24" viewBox="0 0 24 24" fill="none" xmlns="http://www.w3.org/2000/svg">
<g clip-path="url(#clip0_30_2409)">
<path d="M23.9908 23.394C23.9233 23.757 23.5813 24.0045 23.2108 24C22.1938 23.9895 21.5893 23.613 21.1183 23.25C21.0463 23.1945 20.9773 23.139 20.9098 23.085C20.4688 22.7325 20.1778 22.5 19.5028 22.5C18.8278 22.5 18.5368 22.7325 18.0958 23.085C18.0283 23.139 17.9593 23.1945 17.8873 23.25C17.4103 23.6175 16.7953 24 15.7528 24C14.7103 24 14.0953 23.6175 13.6183 23.25C13.5463 23.1945 13.4773 23.139 13.4098 23.085C12.9688 22.7325 12.6778 22.5 12.0028 22.5C11.3278 22.5 11.0368 22.7325 10.5958 23.085C10.5283 23.139 10.4593 23.1945 10.3873 23.25C9.91032 23.6175 9.29532 24 8.25282 24C7.21032 24 6.59532 23.6175 6.11682 23.25C6.04482 23.1945 5.97582 23.139 5.90832 23.085C5.46732 22.7325 5.17632 22.5 4.50132 22.5C3.82632 22.5 3.53532 22.7325 3.09432 23.085C3.02682 23.139 2.95782 23.1945 2.88582 23.25C2.41482 23.613 1.81032 23.9895 0.793321 24C0.424321 24.0045 0.0808209 23.757 0.0133209 23.394C-0.0751791 22.917 0.289321 22.5 0.749821 22.5C1.42482 22.5 1.71582 22.2675 2.15682 21.915C2.66682 21.507 3.29982 21 4.49982 21C5.69982 21 6.33432 21.507 6.84282 21.915C7.28382 22.2675 7.57482 22.5 8.24982 22.5C8.92482 22.5 9.21582 22.2675 9.65682 21.915C10.1653 21.507 10.7998 21 11.9998 21C13.1998 21 13.8343 21.507 14.3428 21.915C14.7838 22.2675 15.0748 22.5 15.7498 22.5C16.4248 22.5 16.7158 22.2675 17.1568 21.915C17.6653 21.507 18.2998 21 19.4998 21C20.6998 21 21.3343 21.507 21.8428 21.915C22.2838 22.2675 22.5748 22.5 23.2498 22.5C23.7103 22.5 24.0748 22.917 23.9863 23.394H23.9908ZM7.49232 12.9045C5.96382 10.2615 5.89482 6.354 5.95482 4.578C4.69182 4.9275 3.76032 6.0825 3.75432 7.455C3.75432 7.8045 3.51432 8.124 3.17382 8.199C2.68632 8.3055 2.25432 7.9365 2.25432 7.467C2.25432 5.2815 3.82182 3.4545 5.89182 3.051C5.59632 2.1525 4.75032 1.5015 3.75432 1.5015C2.51982 1.5015 1.51332 2.502 1.50432 3.735C1.50132 4.0845 1.26882 4.407 0.926821 4.482C0.437821 4.5915 0.00432089 4.2225 0.00432089 3.7515C0.00432089 1.6815 1.68582 0 3.75432 0C4.97982 0 6.07032 0.591 6.75432 1.503C7.43832 0.591 8.52882 0 9.75432 0C11.8078 0 13.4803 1.6575 13.5043 3.705C13.5088 4.077 13.2613 4.4205 12.8953 4.4865C12.4183 4.5735 12.0043 4.2105 12.0043 3.75C12.0043 2.5095 10.9948 1.5 9.75432 1.5C8.75832 1.5 7.91232 2.151 7.61682 3.0495C9.68082 3.4515 11.2453 5.2695 11.2543 7.4475C11.2543 7.8075 11.0038 8.1345 10.6498 8.202C10.1713 8.292 9.75432 7.9275 9.75432 7.4655C9.75432 6.0525 8.77182 4.8675 7.45332 4.551C7.36632 6.7515 7.59132 10.722 9.19632 12.7545C11.1973 12.8055 13.0618 13.635 14.4313 15.075C15.2698 14.5395 16.2493 14.25 17.2543 14.25C20.1013 14.25 22.4233 16.527 22.5013 19.356C22.7023 19.446 22.9318 19.4985 23.2438 19.5C23.5933 19.5 23.9128 19.74 23.9878 20.082C24.0928 20.5695 23.7253 21 23.2558 21C22.2133 21 21.5983 20.6175 21.1213 20.25C21.0493 20.1945 20.9803 20.139 20.9128 20.085C20.4718 19.7325 20.1808 19.5 19.5058 19.5C18.8308 19.5 18.5398 19.7325 18.0988 20.085C18.0313 20.139 17.9623 20.1945 17.8903 20.25C17.4133 20.6175 16.7983 21 15.7558 21C14.7133 21 14.0983 20.6175 13.6213 20.25C13.5493 20.1945 13.4803 20.139 13.4128 20.085C12.9718 19.7325 12.6808 19.5 12.0058 19.5C11.3308 19.5 11.0398 19.7325 10.5988 20.085C10.5313 20.139 10.4623 20.1945 10.3903 20.25C9.91332 20.6175 9.29832 21 8.25582 21C7.21332 21 6.59832 20.6175 6.11982 20.25C6.04782 20.1945 5.97882 20.139 5.91132 20.085C5.47032 19.7325 5.17932 19.5 4.50432 19.5C3.82932 19.5 3.53832 19.7325 3.09732 20.085C3.02982 20.139 2.96082 20.1945 2.88882 20.25C2.41782 20.613 1.81332 20.9895 0.796321 21C0.427321 21.0045 0.0838209 20.757 0.0163209 20.394C-0.0721791 19.917 0.292321 19.5 0.752821 19.5C1.09932 19.5 1.34532 19.4385 1.56132 19.3305C1.95882 16.0845 4.38732 13.5375 7.49082 12.9045H7.49232ZM3.37032 18.183C3.68382 18.072 4.05432 18.0015 4.50432 18.0015C5.70432 18.0015 6.33882 18.5085 6.84732 18.9165C7.28832 19.269 7.57932 19.5015 8.25432 19.5015C8.92932 19.5015 9.22032 19.269 9.66132 18.9165C10.1698 18.5085 10.8043 18.0015 12.0043 18.0015C13.2043 18.0015 13.8388 18.5085 14.3473 18.9165C14.7883 19.269 15.0793 19.5015 15.7543 19.5015C16.4293 19.5015 16.7203 19.269 17.1613 18.9165C17.6698 18.5085 18.3043 18.0015 19.5043 18.0015C20.0263 18.0015 20.4403 18.0975 20.7853 18.24C20.2018 16.611 18.5203 15.4995 16.6363 15.8025C15.9403 15.915 15.2953 16.242 14.7613 16.7025L14.2138 17.175L13.7293 16.557C12.5818 15.093 10.8598 14.253 9.00582 14.253C6.43482 14.253 4.21782 15.8685 3.37182 18.1845L3.37032 18.183Z" fill="white"/>
</g>
<defs>
<clipPath id="clip0_30_2409">
<rect width="24" height="24" fill="white"/>
</clipPath>
</defs>
</svg>
