<svg width="24" height="24" viewBox="0 0 24 24" fill="none" xmlns="http://www.w3.org/2000/svg">
<g clip-path="url(#clip0_30_2399)">
<path d="M23.997 23.2442C23.997 23.6581 23.6611 23.994 23.2472 23.994C22.2049 23.994 21.5901 23.6116 21.1132 23.2442C21.0412 23.1887 20.9723 23.1332 20.9048 23.0792C20.4639 22.7268 20.173 22.4944 19.4981 22.4944C18.8233 22.4944 18.5324 22.7268 18.0915 23.0792C18.024 23.1332 17.955 23.1887 17.883 23.2442C17.4061 23.6116 16.7913 23.994 15.7491 23.994C14.7068 23.994 14.092 23.6116 13.6151 23.2442C13.5431 23.1887 13.4741 23.1332 13.4066 23.0792C12.9658 22.7268 12.6748 22.4944 12 22.4944C11.3252 22.4944 11.0342 22.7268 10.5934 23.0792C10.5259 23.1332 10.4569 23.1887 10.3849 23.2442C9.90802 23.6116 9.29318 23.994 8.25094 23.994C7.2087 23.994 6.59385 23.6116 6.11547 23.2442C6.04349 23.1887 5.97451 23.1332 5.90702 23.0792C5.46613 22.7268 5.17521 22.4944 4.50037 22.4944C3.82554 22.4944 3.53462 22.7268 3.09373 23.0792C3.02624 23.1332 2.95726 23.1887 2.88528 23.2442C2.4084 23.6116 1.79355 23.994 0.749812 23.994C0.335916 23.994 0 23.6581 0 23.2442C0 22.8303 0.335916 22.4944 0.749812 22.4944C1.42464 22.4944 1.71557 22.2619 2.15646 21.9095C2.66633 21.5016 3.29918 20.9947 4.49888 20.9947C5.69858 20.9947 6.33292 21.5016 6.84129 21.9095C7.28218 22.2619 7.57311 22.4944 8.24794 22.4944C8.92277 22.4944 9.2137 22.2619 9.65458 21.9095C10.163 21.5016 10.7973 20.9947 11.997 20.9947C13.1967 20.9947 13.831 21.5016 14.3394 21.9095C14.7803 22.2619 15.0712 22.4944 15.7461 22.4944C16.4209 22.4944 16.7118 22.2619 17.1527 21.9095C17.6611 21.5016 18.2954 20.9947 19.4951 20.9947C20.6948 20.9947 21.3292 21.5016 21.8375 21.9095C22.2784 22.2619 22.5694 22.4944 23.2442 22.4944C23.6581 22.4944 23.994 22.8303 23.994 23.2442H23.997ZM23.2472 17.9955C22.5724 17.9955 22.2814 17.7631 21.8405 17.4106C21.3322 17.0027 20.6978 16.4959 19.4981 16.4959C18.2984 16.4959 17.6641 17.0027 17.1557 17.4106C16.7148 17.7631 16.4239 17.9955 15.7491 17.9955C15.0742 17.9955 14.7833 17.7631 14.3424 17.4106C13.834 17.0027 13.1997 16.4959 12 16.4959C10.8003 16.4959 10.166 17.0027 9.65758 17.4106C9.21669 17.7631 8.92577 17.9955 8.25094 17.9955C7.57611 17.9955 7.28518 17.7631 6.84429 17.4106C6.33442 17.0027 5.70157 16.4959 4.50187 16.4959C3.30217 16.4959 2.66783 17.0027 2.15946 17.4106C1.71857 17.7631 1.42764 17.9955 0.752812 17.9955C0.338915 17.9955 0.00299925 18.3314 0.00299925 18.7453C0.00299925 19.1592 0.338915 19.4951 0.752812 19.4951C1.79505 19.4951 2.4099 19.1127 2.88828 18.7453C2.96026 18.6898 3.02924 18.6343 3.09673 18.5804C3.53762 18.2279 3.82854 17.9955 4.50337 17.9955C5.17821 17.9955 5.46913 18.2279 5.91002 18.5804C5.97751 18.6343 6.04649 18.6898 6.11847 18.7453C6.59535 19.1127 7.2102 19.4951 8.25394 19.4951C9.29768 19.4951 9.91102 19.1127 10.3879 18.7453C10.4599 18.6898 10.5289 18.6343 10.5963 18.5804C11.0372 18.2279 11.3282 17.9955 12.003 17.9955C12.6778 17.9955 12.9688 18.2279 13.4096 18.5804C13.4771 18.6343 13.5461 18.6898 13.6181 18.7453C14.095 19.1127 14.7098 19.4951 15.7521 19.4951C16.7943 19.4951 17.4091 19.1127 17.886 18.7453C17.958 18.6898 18.027 18.6343 18.0945 18.5804C18.5354 18.2279 18.8263 17.9955 19.5011 17.9955C20.176 17.9955 20.4669 18.2279 20.9078 18.5804C20.9753 18.6343 21.0442 18.6898 21.1162 18.7453C21.5931 19.1127 22.2079 19.4951 23.2502 19.4951C23.6641 19.4951 24 19.1592 24 18.7453C24 18.3314 23.6641 17.9955 23.2502 17.9955H23.2472ZM23.997 14.2464C23.997 14.6603 23.6611 14.9963 23.2472 14.9963C22.2049 14.9963 21.5901 14.6138 21.1132 14.2464C21.0412 14.191 20.9723 14.1355 20.9048 14.0815C20.4639 13.7291 20.173 13.4966 19.4981 13.4966C18.8233 13.4966 18.5324 13.7291 18.0915 14.0815C18.024 14.1355 17.955 14.191 17.883 14.2464C17.4061 14.6138 16.7913 14.9963 15.7491 14.9963C14.7068 14.9963 14.092 14.6138 13.6151 14.2464C13.5431 14.191 13.4741 14.1355 13.4066 14.0815C12.9658 13.7291 12.6748 13.4966 12 13.4966C11.3252 13.4966 11.0342 13.7291 10.5934 14.0815C10.5259 14.1355 10.4569 14.191 10.3849 14.2464C9.90802 14.6138 9.29318 14.9963 8.25094 14.9963C7.2087 14.9963 6.59385 14.6138 6.11547 14.2464C6.04349 14.191 5.97451 14.1355 5.90702 14.0815C5.46613 13.7291 5.17521 13.4966 4.50037 13.4966C3.82554 13.4966 3.53462 13.7291 3.09373 14.0815C3.02624 14.1355 2.95726 14.191 2.88528 14.2464C2.4084 14.6138 1.79355 14.9963 0.749812 14.9963C0.335916 14.9963 0 14.6603 0 14.2464C0 13.8325 0.335916 13.4966 0.749812 13.4966C1.42464 13.4966 1.71557 13.2642 2.15646 12.9118C2.66633 12.5039 3.29918 11.997 4.49888 11.997C5.69858 11.997 6.33292 12.5039 6.84129 12.9118C7.28218 13.2642 7.57311 13.4966 8.24794 13.4966C8.92277 13.4966 9.2137 13.2642 9.65458 12.9118C10.163 12.5039 10.7973 11.997 11.997 11.997C12.2759 11.997 12.5234 12.0255 12.7468 12.072V7.12322H0.752812C0.338915 7.12322 0.00299925 6.7873 0.00299925 6.37341C0.00299925 5.95951 0.338915 5.62359 0.752812 5.62359H12.7498V2.99925C12.7498 2.17296 12.0765 1.49962 11.2502 1.49962C10.4239 1.49962 9.75056 2.17296 9.75056 2.99925C9.75056 3.41315 9.41465 3.74906 9.00075 3.74906C8.58685 3.74906 8.25094 3.41315 8.25094 2.99925C8.25094 1.34516 9.5961 0 11.2502 0C12.147 0 12.9493 0.397401 13.4996 1.02274C14.05 0.397401 14.8523 0 15.7491 0C17.4031 0 18.7483 1.34516 18.7483 2.99925V5.62359H23.2472C23.6611 5.62359 23.997 5.95951 23.997 6.37341C23.997 6.7873 23.6611 7.12322 23.2472 7.12322H18.7483V12.072C18.9718 12.0255 19.2192 11.997 19.4981 11.997C20.6978 11.997 21.3322 12.5039 21.8405 12.9118C22.2814 13.2642 22.5724 13.4966 23.2472 13.4966C23.6611 13.4966 23.997 13.8325 23.997 14.2464ZM14.2494 5.62359H17.2487V2.99925C17.2487 2.17296 16.5754 1.49962 15.7491 1.49962C14.9228 1.49962 14.2494 2.17296 14.2494 2.99925V5.62359ZM17.2487 12.8368V7.12322H14.2494V12.8353C14.2809 12.8608 14.3124 12.8863 14.3439 12.9103C14.7848 13.2627 15.0757 13.4951 15.7506 13.4951C16.4254 13.4951 16.7163 13.2627 17.1572 12.9103C17.1872 12.8863 17.2187 12.8608 17.2502 12.8353L17.2487 12.8368Z" fill="white"/>
</g>
<defs>
<clipPath id="clip0_30_2399">
<rect width="24" height="24" fill="white"/>
</clipPath>
</defs>
</svg>
