<svg width="20" height="18" viewBox="0 0 20 18" fill="none" xmlns="http://www.w3.org/2000/svg">
<path d="M17.4305 1.57999C19.3037 3.04928 20.2373 5.80647 18.7983 8.57844C17.9392 10.2173 16.3885 11.531 14.6363 12.9027C14.4475 13.0504 14.2564 13.1989 14.0639 13.3483C12.6612 14.4379 11.1852 15.5843 10 16.9509C8.81477 15.5843 7.33885 14.4379 5.93605 13.3483C5.74359 13.1989 5.55251 13.0504 5.36375 12.9027C3.61155 11.531 2.06091 10.2173 1.20174 8.57856C-0.237301 5.80654 0.696232 3.0493 2.56955 1.57999C3.50691 0.844782 4.67358 0.437471 5.8955 0.507846C7.11257 0.577942 8.42175 1.1242 9.64432 2.36162L10 2.72162L10.3557 2.36162C11.5782 1.1242 12.8874 0.577942 14.1045 0.507846C15.3264 0.437471 16.4931 0.844782 17.4305 1.57999Z" fill="#25F299" stroke="#EBF3F6"/>
</svg>
