<svg width="24" height="24" viewBox="0 0 24 24" fill="none" xmlns="http://www.w3.org/2000/svg">
<g clip-path="url(#clip0_30_2386)">
<path d="M21.7479 15.0001H10.865L16.1384 6.50937L17.4328 7.99423C17.5693 8.15021 17.7643 8.24321 17.9728 8.2507C17.9818 8.2507 17.9893 8.2507 17.9983 8.2507C18.1962 8.2507 18.3882 8.17121 18.5292 8.03172L20.56 6.00092H22.5443L22.6118 6.11041C22.8308 6.46288 23.2928 6.57087 23.6452 6.35189C23.9977 6.13291 24.1057 5.67095 23.8867 5.31849L21.1435 0.901413C21.1435 0.901413 21.1375 0.892414 21.1345 0.887914C20.773 0.332968 20.1626 0 19.4996 0C18.8367 0 18.2262 0.331468 17.8648 0.887914C17.8618 0.892414 17.8588 0.896914 17.8558 0.901413L9.11162 14.9791C9.11162 14.9791 9.10562 14.9926 9.10112 15.0001H5.24949V7.85174C6.04592 8.56567 7.09732 9.00063 8.2492 9.00063C8.66316 9.00063 8.99913 8.66466 8.99913 8.2507C8.99913 7.83674 8.66316 7.50078 8.2492 7.50078C6.59486 7.50078 5.24949 6.15541 5.24949 4.50107V4.1021C6.04592 4.81604 7.09732 5.25099 8.2492 5.25099C8.66316 5.25099 8.99913 4.91503 8.99913 4.50107C8.99913 4.08711 8.66316 3.75114 8.2492 3.75114C6.59486 3.75114 5.24949 2.40577 5.24949 0.751428C5.24949 0.337467 4.91353 0.00149986 4.49957 0.00149986C4.08561 0.00149986 3.74964 0.337467 3.74964 0.751428C3.74964 2.40577 2.40427 3.75114 0.749928 3.75114C0.335968 3.75114 0 4.08711 0 4.50107C0 4.91503 0.335968 5.25099 0.749928 5.25099C1.90182 5.25099 2.95322 4.81604 3.74964 4.1021V4.50107C3.74964 6.15541 2.40427 7.50078 0.749928 7.50078C0.335968 7.50078 0 7.83674 0 8.2507C0 8.66466 0.335968 9.00063 0.749928 9.00063C1.90182 9.00063 2.95322 8.56567 3.74964 7.85174V15.0001H0.749928C0.335968 15.0001 0 15.336 0 15.75C0 16.1639 0.335968 16.4999 0.749928 16.4999H3.74964V18.7497C3.74964 19.1637 4.08561 19.4996 4.49957 19.4996C4.91353 19.4996 5.24949 19.1637 5.24949 18.7497V16.4999H21.7479C22.1619 16.4999 22.4978 16.8359 22.4978 17.2498C22.4978 17.6638 22.1619 17.9998 21.7479 17.9998H13.4987C11.8444 17.9998 10.499 19.3451 10.499 20.9995C10.499 22.6538 11.8444 23.9992 13.4987 23.9992H18.7482C19.1622 23.9992 19.4981 23.6632 19.4981 23.2493C19.4981 22.8353 19.1622 22.4993 18.7482 22.4993H13.4987C12.6723 22.4993 11.9988 21.8259 11.9988 20.9995C11.9988 20.1731 12.6723 19.4996 13.4987 19.4996H21.7479C22.9883 19.4996 23.9977 18.4902 23.9977 17.2498C23.9977 16.0095 22.9883 15.0001 21.7479 15.0001ZM19.1247 1.70084C19.2446 1.52085 19.4261 1.50136 19.4981 1.50136C19.5701 1.50136 19.7516 1.52085 19.8716 1.70084L21.6099 4.50107H20.2465C20.0471 4.50107 19.8566 4.58056 19.7156 4.72004L18.0343 6.40138L16.9649 5.1745L19.1232 1.69934L19.1247 1.70084Z" fill="#25F299"/>
</g>
<defs>
<clipPath id="clip0_30_2386">
<rect width="24" height="24" fill="#25F299"/>
</clipPath>
</defs>
</svg>
