<svg width="24" height="24" viewBox="0 0 24 24" fill="none" xmlns="http://www.w3.org/2000/svg">
<path fill-rule="evenodd" clip-rule="evenodd" d="M10.077 3.35999C7.49866 3.35999 5.39842 5.4603 5.39842 8.03864C5.39842 9.28302 5.75911 10.8261 6.50953 12.1161C6.72469 12.486 6.97735 12.8371 7.26607 13.15C7.24284 13.3062 7.20991 13.4284 7.17691 13.5023C7.1335 13.5996 7.11728 13.5982 7.11022 13.6009C6.68104 13.7635 5.41752 13.8702 4.22297 14.2436C3.02842 14.6169 1.77795 15.3698 1.45059 16.897C1.43295 16.9794 1.43728 17.0649 1.46316 17.1451C1.48904 17.2252 1.53554 17.2971 1.59801 17.3536C6.27363 21.581 13.8829 21.581 18.5585 17.3536C18.6111 17.306 18.6524 17.2474 18.6796 17.1819C18.7068 17.1164 18.7192 17.0457 18.7158 16.9748C20.0619 16.5613 21.3287 15.8719 22.4021 14.9001C22.4645 14.8435 22.511 14.7716 22.5368 14.6914C22.5626 14.6112 22.5669 14.5257 22.5492 14.4433C22.2794 13.1874 21.2425 12.5631 20.2776 12.2618C19.3132 11.9607 18.296 11.8696 17.9874 11.7527C17.9872 11.7527 17.9871 11.7526 17.9869 11.7525C17.9818 11.7525 17.9847 11.7618 17.9586 11.7108C17.942 11.6784 17.9224 11.6218 17.905 11.5455C18.138 11.2923 18.3414 11.0095 18.5139 10.713C19.1212 9.66899 19.4105 8.43072 19.4105 7.42166C19.4105 5.31885 17.6966 3.60245 15.5913 3.60245C14.6582 3.60245 13.7983 3.93979 13.1333 4.49892C12.3123 3.78968 11.2432 3.35999 10.077 3.35999ZM10.077 4.31999C12.1366 4.31999 13.7981 5.97938 13.7981 8.03864C13.7981 9.08921 13.4638 10.5216 12.8168 11.6333C12.1699 12.745 11.2744 13.5097 10.077 13.5097C8.88092 13.5097 7.98606 12.7452 7.33933 11.6334C6.69263 10.5216 6.35841 9.08921 6.35841 8.03864C6.35841 5.97905 8.01742 4.31999 10.077 4.31999ZM15.5911 4.56245C17.178 4.56245 18.4503 5.83718 18.4503 7.42166C18.4503 8.23704 18.1875 9.36461 17.6839 10.2303C17.1804 11.0959 16.5005 11.6732 15.5911 11.6732C15.0233 11.6732 14.5586 11.4532 14.1522 11.0709C14.5599 10.0457 14.758 8.96029 14.758 8.03864C14.758 6.97169 14.3978 5.98688 13.7931 5.19869C14.2841 4.80067 14.9083 4.56245 15.5911 4.56245ZM13.7297 11.969C14.2443 12.3714 14.8732 12.6332 15.5911 12.6332C16.1686 12.6332 16.6822 12.4669 17.1283 12.1929C17.2381 12.3845 17.4176 12.5629 17.6456 12.6498C17.6458 12.6498 17.6459 12.6499 17.6461 12.65C18.2863 12.8931 19.1745 12.9232 19.9914 13.1783C20.7183 13.4052 21.2896 13.7212 21.5346 14.383C20.6129 15.1598 19.5429 15.7206 18.4036 16.0663C17.8766 15.0824 16.8868 14.5419 15.9327 14.2436C14.7384 13.8703 13.4755 13.7636 13.0462 13.6009C13.0461 13.6008 13.0461 13.6008 13.046 13.6008C13.0076 13.5861 12.9875 13.5755 12.9429 13.4886C12.9105 13.4256 12.8774 13.3233 12.8521 13.1898C13.1566 12.867 13.422 12.5019 13.6465 12.1162C13.6748 12.0675 13.7024 12.0184 13.7297 11.969ZM8.07315 13.8479C8.6472 14.233 9.31665 14.4697 10.077 14.4697C10.8273 14.4697 11.4893 14.2395 12.0583 13.8638C12.0681 13.8852 12.0782 13.9063 12.089 13.9272C12.2136 14.1698 12.4275 14.393 12.706 14.4986C13.4673 14.7871 14.6001 14.8328 15.6462 15.1598C16.6057 15.4598 17.3869 15.902 17.6952 16.8343C13.4616 20.4543 6.69429 20.4542 2.46082 16.8342C2.76813 15.902 3.5493 15.4599 4.50912 15.1599C5.55551 14.8329 6.68891 14.7872 7.4504 14.4986C7.74101 14.3884 7.94197 14.1433 8.05342 13.8936C8.06019 13.8785 8.06684 13.8632 8.07315 13.8479Z" fill="white"/>
</svg>
