<svg width="240" height="190" viewBox="0 0 240 190" fill="none" xmlns="http://www.w3.org/2000/svg">
<path d="M72.4436 189.998H39.2897C34.115 190.054 28.9811 189.071 24.1893 187.104C19.3975 185.137 15.0442 182.228 11.3848 178.546C7.72538 174.863 4.83355 170.483 2.87895 165.661C0.924347 160.839 -0.0536698 155.673 0.00227109 150.466V67.8921C0.720925 49.6848 8.39785 32.4598 21.4316 19.8104C34.4653 7.16097 51.8493 0.0640093 69.9571 1.80531e-07C70.6537 -0.000182161 71.3436 0.137765 71.9873 0.405958C72.6309 0.674151 73.2158 1.06733 73.7084 1.56304C74.201 2.05875 74.5917 2.64728 74.8583 3.29499C75.1248 3.9427 75.2619 4.63691 75.2617 5.33795V62.6479C85.7238 63.2561 95.5661 67.8391 102.799 75.4704C110.031 83.1016 114.114 93.2116 114.223 103.756V148.795C114.099 159.83 109.631 170.365 101.799 178.089C93.9663 185.813 83.4095 190.095 72.4436 189.998ZM64.6524 10.9131C50.2908 12.2671 36.9028 18.8106 26.9665 29.3327C17.0301 39.8547 11.2181 53.6428 10.6062 68.1449L10.6115 150.466C10.571 154.267 11.2851 158.038 12.712 161.557C14.1389 165.077 16.2498 168.274 18.921 170.962C21.5921 173.65 24.7698 175.774 28.2674 177.209C31.7651 178.645 35.5124 179.363 39.2896 179.322H72.4435C80.5966 179.422 88.4566 176.265 94.2998 170.543C100.143 164.82 103.492 156.999 103.614 148.795V103.756C103.492 95.5524 100.143 87.7316 94.2998 82.009C88.4566 76.2864 80.5966 73.1293 72.4435 73.23H69.957C69.2603 73.2302 68.5705 73.0923 67.9268 72.8241C67.2831 72.5559 66.6983 72.1627 66.2057 71.667C65.713 71.1713 65.3223 70.5827 65.0558 69.935C64.7893 69.2873 64.6522 68.5931 64.6524 67.8921L64.6524 10.9131Z" fill="#25F299"/>
<path d="M198.221 189.998H165.067C159.892 190.054 154.758 189.07 149.966 187.104C145.175 185.137 140.821 182.228 137.162 178.545C133.503 174.863 130.611 170.483 128.656 165.661C126.702 160.839 125.724 155.673 125.78 150.466V67.8921C126.497 49.6843 134.173 32.4583 147.207 19.8086C160.241 7.15878 177.626 0.062354 195.734 1.80531e-07C196.431 -0.000182161 197.121 0.137765 197.764 0.405958C198.408 0.674151 198.993 1.06733 199.485 1.56304C199.978 2.05875 200.369 2.64728 200.635 3.29499C200.902 3.9427 201.039 4.63691 201.039 5.33795V62.6479C211.501 63.2561 221.343 67.8391 228.576 75.4704C235.808 83.1016 239.891 93.2116 240 103.756V148.795C239.876 159.83 235.408 170.365 227.576 178.089C219.743 185.813 209.187 190.095 198.221 189.998ZM190.429 10.9131C176.067 12.2654 162.678 18.8084 152.742 29.3308C142.805 39.8532 136.994 53.6423 136.384 68.1449L136.389 150.466C136.348 154.267 137.062 158.038 138.489 161.557C139.916 165.077 142.027 168.274 144.698 170.962C147.369 173.65 150.547 175.774 154.045 177.209C157.542 178.645 161.29 179.363 165.067 179.322H198.221C206.374 179.422 214.234 176.265 220.077 170.543C225.92 164.82 229.27 156.999 229.391 148.795V103.756C229.27 95.5524 225.92 87.7316 220.077 82.009C214.234 76.2864 206.374 73.1293 198.221 73.23H195.734C195.038 73.2302 194.348 73.0923 193.704 72.8241C193.06 72.5559 192.476 72.1627 191.983 71.667C191.49 71.1713 191.1 70.5827 190.833 69.935C190.567 69.2873 190.43 68.5931 190.43 67.8921L190.429 10.9131Z" fill="#25F299"/>
</svg>
