<svg width="12" height="12" viewBox="0 0 12 12" fill="none" xmlns="http://www.w3.org/2000/svg">
<g clip-path="url(#clip0_30_2477)">
<path d="M11.4502 5.21289L9.08738 7.51538L9.64549 10.7668C9.67771 10.9543 9.60056 11.144 9.44676 11.2559C9.35984 11.3191 9.25633 11.3513 9.15281 11.3513C9.07322 11.3513 8.99314 11.3323 8.9199 11.2939L5.99998 9.75879L3.08006 11.2939C2.9116 11.3826 2.70701 11.3682 2.5532 11.2559C2.39939 11.144 2.32224 10.9543 2.35447 10.7668L2.91258 7.51538L0.549783 5.21289C0.413553 5.08008 0.364725 4.88135 0.423318 4.7002C0.4824 4.51929 0.63865 4.38721 0.827127 4.35986L4.09178 3.8855L5.55174 0.92749C5.71971 0.586182 6.28025 0.586182 6.44822 0.92749L7.90818 3.8855L11.1728 4.35986C11.3613 4.38721 11.5176 4.51929 11.5766 4.7002C11.6352 4.88135 11.5864 5.08008 11.4502 5.21289Z" fill="#25F299"/>
</g>
<defs>
<clipPath id="clip0_30_2477">
<rect width="12" height="12" fill="white"/>
</clipPath>
</defs>
</svg>
