<svg width="24" height="24" viewBox="0 0 24 24" fill="none" xmlns="http://www.w3.org/2000/svg">
<rect width="24" height="24" rx="12" fill="white"/>
<path d="M20.92 6.71319C20.2604 7.013 19.5494 7.21002 18.8128 7.30424C19.5666 6.85025 20.1491 6.13071 20.4232 5.26554C19.7122 5.69384 18.9241 5.99365 18.0932 6.16497C17.4165 5.4283 16.4657 5 15.3864 5C13.3734 5 11.7287 6.64467 11.7287 8.6748C11.7287 8.96604 11.763 9.24872 11.8229 9.51426C8.77346 9.36008 6.05805 7.8953 4.25063 5.67671C3.93369 6.21637 3.75381 6.85025 3.75381 7.51839C3.75381 8.79472 4.39625 9.92543 5.3899 10.5679C4.78172 10.5679 4.21637 10.3966 3.71954 10.1396V10.1653C3.71954 11.947 4.9873 13.4375 6.66623 13.7715C6.1272 13.9191 5.56131 13.9396 5.013 13.8315C5.24566 14.5617 5.70131 15.2007 6.3159 15.6586C6.93049 16.1164 7.67312 16.3702 8.43939 16.3842C7.14047 17.4125 5.53038 17.9683 3.87373 17.9603C3.58249 17.9603 3.29124 17.9432 3 17.9089C4.62753 18.954 6.56344 19.5621 8.63641 19.5621C15.3864 19.5621 19.0955 13.96 19.0955 9.1031C19.0955 8.94034 19.0954 8.78616 19.0869 8.6234C19.8064 8.10945 20.4232 7.45843 20.92 6.71319Z" fill="#022533"/>
</svg>
